<svg xmlns="http://www.w3.org/2000/svg" viewBox="0 0 183.92 136.96"><defs><style>.cls-1{fill:#fff;}.cls-2{fill:red;}</style></defs><g id="レイヤー_2" data-name="レイヤー 2"><g id="レイヤー_1-2" data-name="レイヤー 1"><path class="cls-1" d="M11.75,0A92,92,0,1,0,172.17,0Z"/><path class="cls-2" d="M56.6,53.9a.93.93,0,0,0,.46.12.89.89,0,0,0,.36-.07A19.44,19.44,0,0,0,67.63,42.06a1,1,0,0,0-.61-1.2,8.08,8.08,0,0,0-3-.34,31.39,31.39,0,0,1,4.45-4.25,34.71,34.71,0,0,1,21.85-7.2,35.51,35.51,0,0,1,22.17,7.39A33.86,33.86,0,0,1,117,40.72a5.54,5.54,0,0,0-3.65.17,2,2,0,0,0-1.25,1.92c0,2,2.14,4.94,3.45,6.48a23.12,23.12,0,0,0,6.28,5.38.91.91,0,0,0,.43.1.94.94,0,0,0,.37-.07,1,1,0,0,0,.55-.59l1.58-4.86,6.48,2.09a1,1,0,0,0,1.25-.79,13.73,13.73,0,0,0-4.3-11.11,1,1,0,0,0-1.33,1.4,12,12,0,0,1,3.76,8.27l-6.18-2a1,1,0,0,0-1.22.62l-1.51,4.63c-3.33-2.22-7.73-7.53-7.68-9.51,0-.17,0-.18.09-.2,1.92-.84,4.65.8,5.54,1.5h0a.75.75,0,0,0,.15.09h0l.15.06h0l.12,0h.28l.09,0,.09,0,.08,0,.09,0,.07,0,.08-.06,0,0,10.16-9.78a1,1,0,0,0,.11-1.26c-2.25-3.1-14.78-18.58-41-18.58a52.47,52.47,0,0,0-29.46,9,46,46,0,0,0-10.17,9.05,1,1,0,0,0,.08,1.26l9.65,9.9.06,0h0l.13.09,0,0a.59.59,0,0,0,.14.06h0a.32.32,0,0,0,.14,0h.25l.12,0h0l.12-.05,0,0,.14-.08,0,0,.12-.11h0a3.68,3.68,0,0,1,2.89-1.23,7.61,7.61,0,0,1,.88.06,18.06,18.06,0,0,1-7.69,9.13L56.88,47a1,1,0,0,0-.46-.64.92.92,0,0,0-.79-.09L50.22,48a11.86,11.86,0,0,1,3.94-7.72,1,1,0,0,0-1.22-1.49c-.21.17-5.16,4.28-4.62,10.61a1,1,0,0,0,.43.72,1,1,0,0,0,.83.11l5.61-1.8.92,4.83a.92.92,0,0,0,.49.66M61.83,25a50.57,50.57,0,0,1,28.32-8.63c23.77,0,35.81,13.06,39,17.11l-8.71,8.39a34.46,34.46,0,0,0-6.7-6.91,37.37,37.37,0,0,0-23.43-7.86,36.62,36.62,0,0,0-23.12,7.67,31.88,31.88,0,0,0-6.37,6.68l-8.21-8.42a48.06,48.06,0,0,1,9.25-8"/><path class="cls-2" d="M89.65,37.85a1,1,0,0,0,1-.91l.26-4.51a1,1,0,1,0-1.93-.11l-.25,4.51a1,1,0,0,0,.91,1h.05"/><path class="cls-2" d="M107,42.62l3.51-3.13a1,1,0,1,0-1.28-1.44l-3.51,3.13a1,1,0,0,0-.08,1.36.94.94,0,0,0,.72.33,1,1,0,0,0,.64-.25"/><path class="cls-2" d="M74.48,42.11a.93.93,0,0,0,.65-.25,1,1,0,0,0,.06-1.36l-2.75-3A1,1,0,0,0,71,38.79l2.76,3a1,1,0,0,0,.71.31"/><path class="cls-2" d="M61.45,59a1,1,0,0,0,.32-1.87L57.5,55.65a1,1,0,1,0-.64,1.82L61.12,59a1.26,1.26,0,0,0,.33.05"/><path class="cls-2" d="M121.54,56.41l-4.76,1.76a1,1,0,0,0,.33,1.86,1,1,0,0,0,.33-.06l4.77-1.75a1,1,0,0,0-.67-1.81"/><path class="cls-2" d="M106.7,48.67a25.31,25.31,0,0,1,6.36,13.67l2.29-1.26s-.89-21.46-25.57-22.31-38.11,31-16.93,47.14L75,84.4a23.75,23.75,0,0,1-9-25.58c4.26-16.92,28-23.56,40.74-10.15"/><path class="cls-2" d="M79.49,70.63A1,1,0,0,0,79.4,72,13.41,13.41,0,0,0,88,76.27h.56c3,0,5.9-1.29,8.65-3.84a1,1,0,0,0,.05-1.36,1,1,0,0,0-1.37,0c-2.51,2.33-5.12,3.45-7.77,3.31a11.61,11.61,0,0,1-7.27-3.62,1,1,0,0,0-1.36-.09"/><path class="cls-2" d="M82.45,62.32c1.21,0,2.19-1.71,2.19-3.82s-1-3.82-2.19-3.82-2.2,1.71-2.2,3.82,1,3.82,2.2,3.82"/><path class="cls-2" d="M97.09,58.72c0-2.11-1-3.82-2.19-3.82s-2.2,1.71-2.2,3.82,1,3.82,2.2,3.82,2.19-1.71,2.19-3.82"/><path class="cls-2" d="M85.61,88l.53-7.12a.18.18,0,0,0-.08-.15.15.15,0,0,0-.16,0L58.17,97.46a.13.13,0,0,0-.08.12l-.58,7.82a.18.18,0,0,0,.08.15.17.17,0,0,0,.17,0l9.6-6L64.67,121.3a.17.17,0,0,0,.07.16l.09,0a.16.16,0,0,0,.09,0l10.35-6.88a.13.13,0,0,0,.07-.12l1.93-21.22,8.27-5.11a.14.14,0,0,0,.07-.12"/><path class="cls-2" d="M97.81,74.3a.14.14,0,0,0-.09-.11.17.17,0,0,0-.14,0l-7.94,4.41a.15.15,0,0,0-.07.09L78.41,111.17a.16.16,0,0,0,.06.19.14.14,0,0,0,.09,0,.21.21,0,0,0,.1,0l9-7.21a.15.15,0,0,0,.06-.09l1.15-5.48,6.59-4.71.41,3.34a.14.14,0,0,0,.09.13.16.16,0,0,0,.16,0l6.68-4.85a.15.15,0,0,0,.06-.17ZM94.05,88l-2.49,1.72,1.81-6.28Z"/><path class="cls-2" d="M109.41,66.84a.15.15,0,0,0-.16,0L104,69.92a.13.13,0,0,0-.08.13l-.45,21.37a.16.16,0,0,0,.08.14l.08,0a.14.14,0,0,0,.09,0l6-4a.17.17,0,0,0,.07-.13L109.49,67a.16.16,0,0,0-.08-.14"/><path class="cls-2" d="M133.93,53.4c-2-.25-6.12,2.08-8.22,4.19a5.34,5.34,0,0,0-1.17,1.31l.25-.81a.16.16,0,0,0-.23-.19l-4.7,2.75a.16.16,0,0,0-.07.09l-2.05,6.15-2.53-3.35a.16.16,0,0,0-.21,0l-5.16,3a.16.16,0,0,0-.07.11.17.17,0,0,0,0,.12l5.34,8.12V82.8a.15.15,0,0,0,.09.14l.07,0a.16.16,0,0,0,.09,0l5.2-3.34a.14.14,0,0,0,.08-.13V71.69l3.09-10.19a32.15,32.15,0,0,0-.16,4.22c0,4,.11,7.2,1.38,8.28a1.42,1.42,0,0,0,1,.34c1.32,0,3.26-1.44,6.14-3.66,3.58-2.76,3.58-4.1,3.58-5.51V56.7c0-2.13-.53-3.14-1.71-3.3m-5.13,9.07a1.77,1.77,0,0,1,.6-1.74l.08-.07c.65-.5,1.14-.87,1.47-.87h.1c.34.08.31,1.23.3,2.07,0,.23,0,.45,0,.66a14.33,14.33,0,0,1-.1,2.29c-.09.49-.71,1-1.37,1.4l-.11.07c-.31.21-.7.47-.83.4s-.13-.11-.13-.59V62.47"/><path class="cls-2" d="M61.59,36.25,59.75,34l3.47,1a.13.13,0,0,0,.13,0l1.38-1.14a.14.14,0,0,0,0-.19L60.86,28.9a.11.11,0,0,0-.09,0,.12.12,0,0,0-.1,0L59.29,30a.14.14,0,0,0,0,.2l1.86,2.28-3.5-1a.11.11,0,0,0-.12,0l-1.37,1.13a.13.13,0,0,0,0,.19L60,37.56a.12.12,0,0,0,.1,0h0a.16.16,0,0,0,.09,0l1.37-1.13a.14.14,0,0,0,0-.2"/><path class="cls-2" d="M64.89,33.29a.18.18,0,0,0,.09.06h0l.08,0,1.55-1.09a.15.15,0,0,0,0-.2l-3.53-5a.15.15,0,0,0-.09-.06.12.12,0,0,0-.1,0l-1.55,1.1a.13.13,0,0,0,0,.19Z"/><path class="cls-2" d="M67,31.81a.16.16,0,0,0,.09.07h.1L68.88,31a.14.14,0,0,0,.06-.19l-.69-1.27.31-1.13,2.17,1.49a.14.14,0,0,0,.15,0l2-1.12a.13.13,0,0,0,.08-.12.15.15,0,0,0-.07-.12l-3.78-2.19.83-3a.15.15,0,0,0,0-.14.14.14,0,0,0-.15,0l-2.21,1.21a.13.13,0,0,0-.07.09l-.56,2.63L66,25.37a.13.13,0,0,0-.09-.07.12.12,0,0,0-.1,0l-1.67.91a.14.14,0,0,0,0,.19Z"/><path class="cls-2" d="M73.23,28.43a.18.18,0,0,0,.07.08h.11l1.75-.74a.14.14,0,0,0,.07-.18l-2.36-5.68a.12.12,0,0,0-.07-.07.11.11,0,0,0-.11,0l-1.75.73a.14.14,0,0,0-.07.19Z"/><path class="cls-2" d="M73.81,23.15a.11.11,0,0,0,.07.08.14.14,0,0,0,.11,0l1.71-.51L77,27.05a.15.15,0,0,0,.06.09h.11L79,26.62a.14.14,0,0,0,.09-.17l-1.25-4.32,1.72-.5a.14.14,0,0,0,.09-.17L79.18,20a.11.11,0,0,0-.07-.08.12.12,0,0,0-.1,0l-5.53,1.62a.14.14,0,0,0-.09.17Z"/><path class="cls-2" d="M80.14,26.18h0L82.08,26a.15.15,0,0,0,.12-.12l.16-.94,1.93-.21.38.88a.13.13,0,0,0,.14.08l2-.22a.14.14,0,0,0,.11-.07.15.15,0,0,0,0-.13l-3-5.86a.13.13,0,0,0-.14-.07l-2,.23a.14.14,0,0,0-.12.1L80,26a.13.13,0,0,0,0,.13.12.12,0,0,0,.1,0m2.54-2.92.3-1.64.66,1.53Z"/><path class="cls-2" d="M93.65,25.31a3.94,3.94,0,0,0,1.79.6,6.34,6.34,0,0,0,.74,0,4.39,4.39,0,0,0,.84-.07,6.15,6.15,0,0,0,1.61-.62.14.14,0,0,0,.07-.11l.3-2.61a.14.14,0,0,0-.12-.15L96,22.06a.12.12,0,0,0-.1,0,.14.14,0,0,0-.05.1l-.15,1.27a.14.14,0,0,0,.12.15l1.12.13,0,.36a3.16,3.16,0,0,1-.59.2,2.15,2.15,0,0,1-.57,0,1.17,1.17,0,0,1-.88-.49,2,2,0,0,1-.19-1.36,2,2,0,0,1,.48-1.24,1.07,1.07,0,0,1,.92-.28,1,1,0,0,1,.59.23.82.82,0,0,1,.27.49.14.14,0,0,0,.15.11l1.85-.11a.12.12,0,0,0,.1-.05.2.2,0,0,0,0-.11,2.67,2.67,0,0,0-.41-1.09,2.1,2.1,0,0,0-.82-.71,4.61,4.61,0,0,0-1.53-.38,4,4,0,0,0-1.76.12,2.85,2.85,0,0,0-1.4,1A4.12,4.12,0,0,0,92.67,24a2.65,2.65,0,0,0,1,1.29"/><path class="cls-2" d="M99.32,26.35l1.83.52a.15.15,0,0,0,.11,0,.16.16,0,0,0,.06-.08L102,24.5h0a.7.7,0,0,1,.34.21,1.48,1.48,0,0,1,.18.5L103,27.3a.13.13,0,0,0,.1.1l2.06.58h0a.11.11,0,0,0,.09,0,.12.12,0,0,0,0-.13l-.4-2a2.34,2.34,0,0,0-.16-.47,1.87,1.87,0,0,0-.22-.42.71.71,0,0,0-.12-.13,1.59,1.59,0,0,0,.34-.06,1.76,1.76,0,0,0,1.28-1.3,1.85,1.85,0,0,0,0-1.12,1.6,1.6,0,0,0-.62-.82,4.67,4.67,0,0,0-1.29-.52l-3-.86a.17.17,0,0,0-.1,0,.13.13,0,0,0-.07.09l-1.65,5.92a.14.14,0,0,0,.09.17M103.87,23a.45.45,0,0,1-.16.24.35.35,0,0,1-.26.07,1.74,1.74,0,0,1-.47-.05l-.63-.18.26-.93.66.19a1,1,0,0,1,.56.28.45.45,0,0,1,0,.38"/><path class="cls-2" d="M106.06,26.94a2.73,2.73,0,0,0,.58,1.5,4.18,4.18,0,0,0,1.46,1.08,3.69,3.69,0,0,0,1.59.4h.18a2.71,2.71,0,0,0,1.47-.55,4.09,4.09,0,0,0,1.13-1.49,3.32,3.32,0,0,0,.24-2.55,3.36,3.36,0,0,0-1.85-1.84,3,3,0,0,0-4.4,1.58,3.73,3.73,0,0,0-.4,1.87m2.36-.93a2,2,0,0,1,.82-1,1,1,0,0,1,.41-.09,1.06,1.06,0,0,1,.47.12,1,1,0,0,1,.61.68,1.76,1.76,0,0,1-.21,1.2,2.18,2.18,0,0,1-.85,1.08,1.17,1.17,0,0,1-1.5-.73,1.9,1.9,0,0,1,.25-1.26"/><path class="cls-2" d="M112.43,30.8a2.53,2.53,0,0,0,.23.86,2.91,2.91,0,0,0,.61.76A9.11,9.11,0,0,0,114,33a4.08,4.08,0,0,0,1.25.63,2.18,2.18,0,0,0,.52.06,2.28,2.28,0,0,0,.45,0,2.4,2.4,0,0,0,1-.4,3.32,3.32,0,0,0,.76-.78l2.11-3a.14.14,0,0,0,0-.19l-1.54-1.1a.14.14,0,0,0-.11,0,.15.15,0,0,0-.09.06l-2.16,3.06a.83.83,0,0,1-1.27.23.9.9,0,0,1-.41-.59.94.94,0,0,1,.2-.7l2.16-3.06a.13.13,0,0,0,0-.19l-1.54-1.1a.14.14,0,0,0-.11,0,.13.13,0,0,0-.09.06L113,29a3.58,3.58,0,0,0-.47,1,2.06,2.06,0,0,0-.08.87"/><path class="cls-2" d="M117,35.26l1.35,1.46a.12.12,0,0,0,.1,0,.13.13,0,0,0,.1,0l1.62-1.54.64.69a2.62,2.62,0,0,0,1.69,1h.13a2.11,2.11,0,0,0,1.47-.66,2.06,2.06,0,0,0,.74-1.49,2.44,2.44,0,0,0-.76-1.63l-2.24-2.41a.14.14,0,0,0-.2,0l-4.63,4.41a.13.13,0,0,0,0,.19m4.31-1.16.83-.79.29.31a.93.93,0,0,1,.32.59.59.59,0,0,1-.19.41.49.49,0,0,1-.41.14,1.11,1.11,0,0,1-.61-.41Z"/></g></g></svg>