<?xml version="1.0" encoding="UTF-8"?><svg xmlns="http://www.w3.org/2000/svg" viewBox="0 0 28.58 28.52"><g id="a"/><g id="b"><g id="c"><path d="M5.28,13.42c1.56-1.08,1.9-1.69,2.21-2.16,.31-.46,.63-1.54-.03-2.04-.46-.35-.98-.73-1-1.17-.03-.52,.44-1.01,1.05-1.39,1.21-.75,3.78-1.71,5.37-2.21,1.59-.5,4.25-1.18,5.67-1.26,.71-.04,1.38,.1,1.65,.54,.23,.38,.03,.99-.15,1.53-.26,.79,.62,1.49,1.14,1.69,.52,.2,1.15,.51,3.05,.5,2.13,0,3.06-.42,3.54-.82,.51-.41,.8-.84,.41-2.32-.39-1.48-2.01-3.24-4-3.78C22.18,0,18.11-.62,11.89,1.33,5.67,3.29,2.68,6.13,1.36,7.71,.03,9.3-.29,11.66,.24,13.11c.53,1.44,1.01,1.62,1.66,1.67,.62,.05,1.62-.15,3.37-1.35Zm22.74,12.4c0-4.83-4.09-8.92-5.3-9.76-1.21-.84-1.86-2.42-1.86-2.88v-3.63c0-.56-.46-.65-1.02-.65s-1.02,.09-1.02,.37-.19,1.95-.19,2.42-.47,.84-.93,.84h-5.11c-.47,0-.93-.37-.93-.84s-.19-2.14-.19-2.42-.47-.37-1.02-.37-1.02,.09-1.02,.65v3.63c0,.46-.65,2.04-1.86,2.88-1.21,.84-5.3,4.93-5.3,9.76,0,0-.56,.56-.56,1.3s.09,1.39,.84,1.39H27.74c.74,0,.84-.65,.84-1.39s-.56-1.3-.56-1.3Zm-16-.52c0,.16-.14,.28-.31,.28h-1.5c-.17,0-.31-.13-.31-.28v-1.39c0-.16,.14-.28,.31-.28h1.5c.17,0,.31,.13,.31,.28v1.39Zm0-3.65c0,.16-.14,.28-.31,.28h-1.5c-.17,0-.31-.13-.31-.28v-1.39c0-.16,.14-.28,.31-.28h1.5c.17,0,.31,.13,.31,.28v1.39Zm0-3.43c0,.16-.14,.28-.31,.28h-1.5c-.17,0-.31-.13-.31-.28v-1.39c0-.16,.14-.28,.31-.28h1.5c.17,0,.31,.13,.31,.28v1.39Zm4.18,7.09c0,.16-.14,.28-.31,.28h-1.5c-.17,0-.31-.13-.31-.28v-1.39c0-.16,.14-.28,.31-.28h1.5c.17,0,.31,.13,.31,.28v1.39Zm0-3.65c0,.16-.14,.28-.31,.28h-1.5c-.17,0-.31-.13-.31-.28v-1.39c0-.16,.14-.28,.31-.28h1.5c.17,0,.31,.13,.31,.28v1.39Zm0-3.43c0,.16-.14,.28-.31,.28h-1.5c-.17,0-.31-.13-.31-.28v-1.39c0-.16,.14-.28,.31-.28h1.5c.17,0,.31,.13,.31,.28v1.39Zm4.18,7.09c0,.16-.14,.28-.31,.28h-1.5c-.17,0-.31-.13-.31-.28v-1.39c0-.16,.14-.28,.31-.28h1.5c.17,0,.31,.13,.31,.28v1.39Zm0-3.65c0,.16-.14,.28-.31,.28h-1.5c-.17,0-.31-.13-.31-.28v-1.39c0-.16,.14-.28,.31-.28h1.5c.17,0,.31,.13,.31,.28v1.39Zm0-3.43c0,.16-.14,.28-.31,.28h-1.5c-.17,0-.31-.13-.31-.28v-1.39c0-.16,.14-.28,.31-.28h1.5c.17,0,.31,.13,.31,.28v1.39Z"/></g></g></svg>