<svg xmlns="http://www.w3.org/2000/svg" viewBox="0 0 28.44 20"><defs><style>.cls-1{fill:#fff;}</style></defs><g id="レイヤー_2" data-name="レイヤー 2"><g id="レイヤー_1-2" data-name="レイヤー 1"><path class="cls-1" d="M28.15,4.31A6.2,6.2,0,0,0,27,1.49,4,4,0,0,0,24.17.29c-4-.29-10-.29-10-.29h0s-6,0-10,.29a4.06,4.06,0,0,0-2.85,1.2A6.2,6.2,0,0,0,.28,4.31,43.69,43.69,0,0,0,0,8.92v2.15a43.69,43.69,0,0,0,.28,4.61A6.16,6.16,0,0,0,1.41,18.5a4.81,4.81,0,0,0,3.14,1.21c2.27.22,9.67.29,9.67.29s6,0,10-.3A4,4,0,0,0,27,18.5a6.16,6.16,0,0,0,1.13-2.82,42.2,42.2,0,0,0,.29-4.61V8.92a42.2,42.2,0,0,0-.29-4.61M11.28,13.69v-8l7.68,4Z"/></g></g></svg>