<svg xmlns="http://www.w3.org/2000/svg" viewBox="0 0 26.48 25.51"><defs><style>.cls-1{fill:#fff;}</style></defs><g id="レイヤー_2" data-name="レイヤー 2"><g id="レイヤー_1-2" data-name="レイヤー 1"><path class="cls-1" d="M13.47,11.27a.44.44,0,0,0-.42-.49.45.45,0,0,0-.46.5,1.65,1.65,0,0,0,.33.82,1,1,0,0,0,.55-.83"/><path class="cls-1" d="M7.08,7.36c-1.39,0-1.57,1.74-1.57,3.28s.2,3.28,1.56,3.28,1.58-1.87,1.58-3.28S8.48,7.36,7.08,7.36"/><path class="cls-1" d="M12.15,13.63a.73.73,0,0,0,.72.81.84.84,0,0,0,.58-.22,11.13,11.13,0,0,1-1-1.29.88.88,0,0,0-.33.7"/><path class="cls-1" d="M13.24,0C5.93,0,0,5,0,11.13S5.93,22.25,13.24,22.25a16.3,16.3,0,0,0,1.86-.11L18,25.51l.4-4.12c4.78-1.68,8.13-5.64,8.13-10.26C26.48,5,20.55,0,13.24,0M9.42,15.72a2.08,2.08,0,0,0,.82-.17V16a2.74,2.74,0,0,1-1.18.27,3,3,0,0,1-2.74-1.9c-1.64-.27-2.4-1.65-2.4-3.72,0-1.74.58-3.78,3.15-3.78,2.8,0,3.17,2.36,3.17,3.78,0,1.93-.66,3.49-2.5,3.74.53,1.12,1.11,1.34,1.68,1.34m5.35-.94a1.53,1.53,0,0,1-1-.32,1.63,1.63,0,0,1-1.07.34c-1,0-1.54-.47-1.54-1.12s.43-.94,1-1.2a2.2,2.2,0,0,1-.41-1c0-.61.54-.95,1.24-.95s1.22.34,1.22.81a.84.84,0,0,1-.17.53,2.25,2.25,0,0,1-.91.61c.26.37.57.8,1,1.29a1.35,1.35,0,0,0,.39-.86c0-.17-.1-.22-.32-.22v-.28h1.23v.28c-.27,0-.36,0-.51.41a2.42,2.42,0,0,1-.54.92c.28.3.45.41.65.41a.44.44,0,0,0,.34-.14l.17.2a1,1,0,0,1-.78.33m7.73-.49H19.91v-.47c.36,0,.49-.08.49-.27a1.25,1.25,0,0,0-.08-.36L20,12.1H17.9l-.25,1a1.91,1.91,0,0,0-.09.48c0,.21.13.26.46.26v.47H16.33v-.47c.29,0,.44-.1.57-.55l1.93-6.41h1l2.08,6.27c.19.59.31.69.63.69Z"/><polygon class="cls-1" points="18.9 8.6 18.09 11.54 19.83 11.54 18.94 8.6 18.9 8.6"/></g></g></svg>