<?xml version="1.0" encoding="UTF-8"?><svg xmlns="http://www.w3.org/2000/svg" viewBox="0 0 22 17.88"><defs><style>.e{fill:#fff;}</style></defs><g id="a"/><g id="b"><g id="c"><path id="d" class="e" d="M19.75,4.45c.01,.19,.01,.39,.01,.58,0,5.96-4.54,12.84-12.84,12.84h0c-2.45,0-4.85-.7-6.92-2.03,.36,.04,.72,.06,1.07,.07,2.03,0,4.01-.68,5.61-1.94-1.93-.04-3.63-1.3-4.22-3.13,.68,.13,1.37,.1,2.04-.08-2.11-.43-3.62-2.28-3.62-4.42v-.06c.63,.35,1.33,.54,2.05,.56C.95,5.52,.33,2.89,1.53,.82,3.82,3.64,7.2,5.36,10.83,5.54c-.36-1.57,.13-3.21,1.31-4.31,1.82-1.71,4.68-1.62,6.39,.2,1.01-.2,1.98-.57,2.87-1.1-.34,1.05-1.04,1.93-1.98,2.5,.89-.11,1.77-.35,2.59-.71-.61,.91-1.37,1.7-2.25,2.34Z"/></g></g></svg>