<svg xmlns="http://www.w3.org/2000/svg" viewBox="0 0 20 20"><defs><style>.cls-1{fill:#fff;}</style></defs><g id="レイヤー_2" data-name="レイヤー 2"><g id="レイヤー_1-2" data-name="レイヤー 1"><path class="cls-1" d="M10,1.8c2.67,0,3,0,4,.06a6,6,0,0,1,1.86.34,3.33,3.33,0,0,1,1.9,1.9A5.67,5.67,0,0,1,18.14,6c.05,1,.06,1.37.06,4s0,3-.06,4a5.61,5.61,0,0,1-.34,1.86,3.19,3.19,0,0,1-.75,1.15,3.27,3.27,0,0,1-1.15.75,5.67,5.67,0,0,1-1.86.34c-1,.05-1.37.06-4,.06s-3,0-4-.06A5.61,5.61,0,0,1,4.1,17.8,3.27,3.27,0,0,1,3,17.05,3.19,3.19,0,0,1,2.2,15.9,5.61,5.61,0,0,1,1.86,14c-.05-1-.06-1.37-.06-4s0-3,.06-4A5.67,5.67,0,0,1,2.2,4.1,3.33,3.33,0,0,1,4.1,2.2,5.89,5.89,0,0,1,6,1.86c1-.05,1.37-.06,4-.06M10,0C7.28,0,6.94,0,5.88.06A7.3,7.3,0,0,0,3.45.53,4.7,4.7,0,0,0,1.68,1.68,4.85,4.85,0,0,0,.52,3.45,7.59,7.59,0,0,0,.06,5.88C0,6.94,0,7.28,0,10s0,3.06.06,4.12a7.59,7.59,0,0,0,.46,2.43,4.85,4.85,0,0,0,1.16,1.77,4.85,4.85,0,0,0,1.77,1.16,7.59,7.59,0,0,0,2.43.46C6.94,20,7.28,20,10,20s3.06,0,4.12-.06a7.59,7.59,0,0,0,2.43-.46,4.85,4.85,0,0,0,1.77-1.16,4.7,4.7,0,0,0,1.15-1.77,7.3,7.3,0,0,0,.47-2.43c0-1.06.06-1.4.06-4.12s0-3.06-.06-4.12a7.3,7.3,0,0,0-.47-2.43,4.7,4.7,0,0,0-1.15-1.77A4.7,4.7,0,0,0,16.55.53,7.3,7.3,0,0,0,14.12.06C13.06,0,12.72,0,10,0"/><path class="cls-1" d="M10,4.87A5.14,5.14,0,1,0,15.13,10,5.14,5.14,0,0,0,10,4.87m0,8.47A3.34,3.34,0,1,1,13.33,10,3.33,3.33,0,0,1,10,13.34"/><path class="cls-1" d="M16.53,4.66a1.2,1.2,0,1,1-1.2-1.2,1.2,1.2,0,0,1,1.2,1.2"/></g></g></svg>