<svg xmlns="http://www.w3.org/2000/svg" viewBox="0 0 14 11.98"><defs><style>.cls-1{fill:#fff;}</style></defs><g id="レイヤー_2" data-name="レイヤー 2"><g id="レイヤー_1-2" data-name="レイヤー 1"><polygon class="cls-1" points="3.79 8.59 2.44 6.8 8.9 6.8 8.9 5.23 2.44 5.23 3.79 3.44 1.94 3.44 0 6.01 1.94 8.59 3.79 8.59"/><path class="cls-1" d="M6.48,12a1.92,1.92,0,0,1-1.92-1.92V8.56H6.08v1.5a.42.42,0,0,0,.4.41h5.6a.41.41,0,0,0,.4-.41V1.92a.4.4,0,0,0-.4-.4H6.48a.41.41,0,0,0-.4.4v1.5H4.56V1.92A1.92,1.92,0,0,1,6.48,0h5.6A1.92,1.92,0,0,1,14,1.92v8.14A1.92,1.92,0,0,1,12.08,12Z"/></g></g></svg>