<?xml version="1.0" encoding="UTF-8"?><svg xmlns="http://www.w3.org/2000/svg" viewBox="0 0 137.9 130"><defs><style>.d{fill:#fff;}</style></defs><g id="a"/><g id="b"><g id="c"><g><g><g><path class="d" d="M71.29,63.08s11.29-6.88,24.27-.26c12.98,6.62,14.28,17,33.62,17,0,0-9.48,4.28-22.2-5.58-12.72-9.86-14.41-14.28-35.69-11.16Z"/><path class="d" d="M71.29,80.47s2.86-3.89,12.07-3.37c9.22,.52,12.72,8.05,7.66,14.02-5.06,5.97-12.72,3.37-20.38,14.41,0,0,.65-6.23,9.73-10.25,9.09-4.02,11.29-5.84,11.16-9.86-.13-4.02-5.32-10.51-20.25-4.93Z"/><path class="d" d="M77,104.61s19.86-15.58,48.42-.65c0,0-25.18-10.51-48.42,.65Z"/><path class="d" d="M66.61,63.08s-11.29-6.88-24.27-.26c-12.98,6.62-14.28,17-33.62,17,0,0,9.48,4.28,22.2-5.58,12.72-9.86,14.41-14.28,35.69-11.16Z"/><path class="d" d="M68.95,67.88c-5.58-4.41-12.72-3.24-12.72-3.24,0,0,6.36-.16,12.72,6.07,6.36-6.23,12.72-6.07,12.72-6.07,0,0-7.14-1.17-12.72,3.24Z"/><path class="d" d="M68.95,74.79c-6.36-6.23-12.72-5.9-12.72-5.9,0,0,7.14-1.17,12.72,3.24,5.58-4.41,12.72-3.24,12.72-3.24,0,0-6.36-.33-12.72,5.9Z"/><path class="d" d="M68.95,79.14c-6.36-6.23-12.72-5.99-12.72-5.99,0,0,7.14-1.17,12.72,3.24,5.58-4.41,12.72-3.24,12.72-3.24,0,0-6.36-.25-12.72,5.99Z"/><path class="d" d="M66.61,80.47s-2.86-3.89-12.07-3.37-12.72,8.05-7.66,14.02c5.06,5.97,12.72,3.37,20.38,14.41,0,0-.65-6.23-9.73-10.25-9.09-4.02-11.29-5.84-11.16-9.86,.13-4.02,5.32-10.51,20.25-4.93Z"/><path class="d" d="M60.9,104.61s-19.86-15.58-48.42-.65c0,0,25.18-10.51,48.42,.65Z"/></g><path class="d" d="M63.76,39.86s-5.78-4.35-11.75-1.56c-5.97,2.79-6.1,7.01-2.73,8.5,3.37,1.49,6.23-.71,9.15-2.99,2.89-2.25,4.95-2.33,6.19-1.58,6.17,5.14,3.24,16.48,3.21,16.6-.13,.47,.15,.96,.63,1.09,.08,.02,.15,.03,.23,.03,.39,0,.75-.26,.86-.66,.14-.53,3.17-12.22-3.45-18.14,.54-.28,1.22-.51,1.94-.39,1.56,.26,11.03,1.88,11.75-4.28,.71-6.17-10.71-5.85-16.03,3.37Z"/></g><g><path class="d" d="M64.86,128.26c.93-1.1,1.08-1.21,1.23-1.21s.3,.11,1.25,.91c.44,.36,.55,.51,.55,.64s-.06,.19-.28,.19h-16v.45c0,.59-.23,.76-1,.76-.51,0-.72-.15-.72-.51,0-.78,.13-3.18,.13-9.82,0-4.88-.02-6.45-.13-8.38,.83,.36,1.19,.51,1.93,.95h12.84c.93-1.04,1.06-1.12,1.19-1.12,.17,0,.32,.08,1.25,.85,.47,.36,.55,.47,.55,.62,0,.13-.09,.19-.32,.19h-15.72v15.49h13.24Zm-1.97-12.18c.79-.95,.98-1.04,1.1-1.04s.3,.08,1.15,.81c.38,.3,.49,.42,.49,.55,0,.15-.06,.21-.28,.21h-5.09c-.02,1.38-.06,2.35-.23,3.31h4.26c.85-1.06,1.02-1.15,1.14-1.15s.3,.08,1.23,.87c.42,.34,.51,.47,.51,.62,0,.13-.06,.19-.28,.19h-6.96c-.17,.78-.32,1.25-.49,1.68,3.56,1.02,5.75,2.46,5.75,3.8,0,.53-.3,.87-.76,.87-.34,0-.66-.23-1.08-.81-1.21-1.59-2.16-2.46-4.05-3.52-1.04,2.35-3.12,3.82-6.51,4.73-.15,.04-.25-.23-.13-.3,3.42-1.61,5.07-3.35,5.69-6.45h-3.99c-.47,0-.79,.04-1.34,.13l-.21-.76c.62,.08,1.02,.11,1.55,.11h4.07c.15-1.1,.19-2.21,.21-3.31h-2.4c-.7,1.02-1.57,1.87-2.76,2.69-.11,.06-.34-.08-.25-.19,.85-.98,1.63-2.38,2.14-3.65,.3-.74,.49-1.44,.55-2.06,1.68,.47,2.19,.68,2.19,.91s-.25,.36-.83,.4c-.21,.49-.44,.93-.7,1.36h6.3Z"/><path class="d" d="M69.23,124.4c0-.42,.15-.68,.57-1.02,1.19-.91,1.8-2.25,2.04-4.18,.02-.11,.25-.11,.28,0,.11,.62,.17,1.23,.17,1.82,0,2.4-.87,4.33-2.14,4.33-.53,0-.91-.4-.91-.95Zm7.06,2.08c0,1.15,.25,1.27,2.95,1.27,1.7,0,2.31-.02,2.82-.34,.51-.32,.74-1,1.38-3.35,.02-.11,.25-.08,.25,.02-.04,1.06-.08,2.04-.08,2.46s.11,.51,.47,.68c.19,.08,.3,.28,.3,.51,0,.51-.4,.89-1.06,1.12-.74,.23-2.1,.38-4.5,.38-3.31,0-4.16-.51-4.16-2.48,0-.51,.06-2.06,.06-6.22,0-2.99-.02-3.52-.13-4.9,2.27,.28,2.5,.36,2.5,.66,0,.21-.17,.4-.81,.64v9.55Zm2.74-12.16c-.81-1.04-1.93-2.04-3.22-2.67-.08-.04-.02-.28,.08-.25,3.03,.36,5.2,1.63,5.2,2.97,0,.53-.32,.95-.83,.95-.38,0-.49-.02-1.23-1Zm7,9.1c-.21-1.49-.95-3.12-1.87-4.37-.09-.11,.1-.25,.21-.19,2.19,1.38,3.63,3.37,3.63,4.88,0,.81-.38,1.29-.98,1.29-.55,0-.78-.25-1-1.61Z"/></g><g><path class="d" d="M5.03,7.85c1.59,.7,2.38,1.74,2.38,2.57,0,.53-.32,.89-.74,.89-.32,0-.49-.19-.59-.74-.15-.93-.4-1.7-1.04-2.31v.34c0,5.81,.06,9.59,.06,10.29,0,.45-.34,.68-.95,.68-.49,0-.7-.17-.7-.57,0-.72,.15-3.69,.21-9.86-.98,2.44-2.01,4.09-3.37,5.49-.11,.11-.34-.08-.25-.21,1.63-2.61,2.8-5.64,3.37-8.8h-1.27c-.4,0-.72,.04-1.32,.13l-.21-.83c.64,.13,1.02,.17,1.53,.17h1.42V2.78c0-1.19-.02-1.76-.1-2.57,2.12,.23,2.35,.36,2.35,.62,0,.21-.15,.36-.76,.62v3.63h.74c.51-.87,.68-.98,.79-.98,.13,0,.32,.13,.91,.76,.23,.23,.34,.42,.34,.55s-.08,.19-.28,.19h-2.5v2.25Zm7.11-3.01v-1.65c0-1.55-.02-2.27-.13-3.05,2.16,.23,2.35,.32,2.35,.59,0,.21-.17,.36-.74,.57v3.54h2.74c.81-1.02,.95-1.15,1.08-1.15,.15,0,.32,.13,1.19,.89,.38,.32,.49,.45,.49,.57,0,.15-.08,.21-.28,.21h-5.22v3.9h3.41c.83-1.1,1-1.21,1.12-1.21,.15,0,.32,.11,1.21,.93,.4,.34,.49,.49,.49,.62s-.06,.19-.28,.19h-5.75c.72,1.48,1.53,2.63,2.65,3.69,1.08,1.04,2.44,1.91,3.99,2.48,.11,.04,.06,.21-.04,.23-.55,.11-.81,.34-1.1,.98-.08,.19-.15,.25-.28,.25-.11,0-.38-.15-.72-.38-.97-.7-1.84-1.57-2.63-2.63-.81-1.12-1.49-2.42-2.16-4.26,.13,6.6,.19,8.17,.19,8.74,0,.47-.34,.7-1,.7-.51,0-.7-.19-.7-.59,0-.57,.11-3.08,.19-7.34-1.65,2.69-3.67,4.54-6.32,5.94-.11,.06-.25-.19-.15-.28,2.46-1.95,4.48-4.41,5.83-7.53h-2.27c-.49,0-.87,.04-1.51,.13l-.21-.81c.68,.13,1.12,.15,1.72,.15h2.82v-3.9h-2.65c-.64,1.12-1.4,2.12-2.36,2.99-.08,.08-.32-.06-.25-.17,.93-1.38,1.63-3.1,2.04-4.71,.21-.74,.3-1.42,.32-1.97,1.74,.47,2.1,.62,2.1,.89,0,.19-.15,.3-.7,.4-.25,.72-.55,1.4-.87,2.04h2.38Z"/><path class="d" d="M26.43,5.09c-.49,0-.91,.04-1.53,.13l-.21-.83c.68,.15,1.12,.17,1.7,.17h9.02c-.02-.57-.02-1.17-.04-1.8-.02-1.1-.04-1.55-.15-2.35,2.21,.23,2.35,.34,2.35,.62,0,.17-.1,.3-.66,.53,.02,1.12,.04,2.12,.06,3.01h3.39c.89-1.04,1.04-1.12,1.17-1.12,.15,0,.3,.08,1.17,.85,.42,.34,.51,.49,.51,.62s-.06,.19-.28,.19h-5.92c.13,2.95,.42,4.71,.95,6.36,.57,1.85,1.59,3.56,3.01,4.84,.51,.45,.81,.62,.98,.62,.21,0,.45-.36,1.27-2.52,.02-.08,.19,0,.19,.08-.17,1.78-.23,2.38-.23,2.74,0,.34,.04,.4,.3,.74,.15,.19,.19,.36,.19,.57,0,.45-.3,.74-.81,.74-.42,0-1.04-.21-1.68-.66-1.91-1.21-3.67-3.42-4.6-6.41-.68-2.02-1-4.07-1.15-7.11h-9.02Zm4.56,9.89c1.53-.4,3.05-.87,4.29-1.34,.15-.04,.25,.21,.13,.3-2.4,1.48-4.96,2.42-8.93,3.63-.15,.64-.23,.76-.42,.76-.28,0-.49-.42-1-2.31,.55-.02,1.29-.11,1.97-.21,.72-.11,1.51-.25,2.31-.42v-6h-2.25c-.49,0-.87,.04-1.46,.15l-.23-.87c.68,.15,1.1,.19,1.65,.19h5.24c.85-1.06,1-1.17,1.12-1.17,.15,0,.32,.08,1.19,.85,.4,.36,.49,.53,.49,.66s-.09,.19-.28,.19h-3.82v5.6ZM39.65,2.91c-.32-.66-.76-1.23-1.46-1.76-.06-.04-.02-.23,.06-.21,1.85,.25,2.95,1,2.95,1.89,0,.42-.34,.81-.74,.81-.32,0-.47-.13-.81-.72Z"/><path class="d" d="M62.74,6.17c1.42,.91,3.12,1.61,4.94,1.99,.11,.02,.06,.23-.04,.25-.53,.06-.85,.4-1.12,1.25-.06,.23-.17,.32-.32,.32-.13,0-.43-.13-.85-.36-1.12-.55-2.48-1.51-3.54-2.42-1.59-1.4-2.86-3.05-4.18-5.52-2.19,3.88-5.13,6.51-9.76,8.59-.13,.06-.28-.23-.15-.32,3.25-2.04,5.83-4.71,7.45-7.49,.47-.83,.85-1.65,1.12-2.48,2.14,.62,2.44,.76,2.44,1,0,.17-.15,.28-.74,.4,1.42,2.14,2.95,3.65,4.75,4.77Zm-6.05,6.02c-.91,1.74-1.97,3.39-3.2,4.94,2.8-.04,5.6-.21,8.38-.47-.57-1.02-1.29-1.91-2.23-2.74-.08-.06,.04-.25,.15-.21,2.74,1.15,4.6,3.05,4.6,4.46,0,.59-.36,1.08-.87,1.08-.45,0-.59-.17-1-1.19-.13-.34-.28-.66-.42-.95-3.92,.87-6.6,1.25-11.31,1.7-.17,.62-.28,.76-.49,.76-.25,0-.32-.11-.91-2.52,.72,.09,1.08,.11,1.99,.11,.49,0,.93,0,1.38-.02,.76-1.55,1.4-3.25,1.78-4.94h-4.03c-.51,0-.89,.04-1.46,.13l-.21-.81c.66,.13,1.1,.15,1.68,.15h12.92c.95-1.15,1.1-1.23,1.23-1.23,.15,0,.3,.09,1.32,.91,.45,.38,.55,.53,.55,.66s-.09,.19-.28,.19h-9.57Zm-4.03-4.29c.66,.13,1.04,.15,1.59,.15h4.65c.85-1,1-1.1,1.12-1.1,.15,0,.28,.11,1.17,.85,.4,.32,.51,.45,.51,.59,0,.13-.08,.19-.3,.19h-7.17c-.47,0-.78,.04-1.36,.13l-.21-.81Z"/><path class="d" d="M76.09,13.58c0,2.44,.04,3.78,.06,5.28,0,.49-.28,.74-1.02,.74-.47,0-.64-.21-.64-.66,.04-.91,.09-2.44,.11-5.54,.02-.85,.02-1.7,.02-2.55-1.02,.81-2.14,1.48-3.42,2.08-.13,.06-.32-.21-.19-.3,2.78-1.93,5.01-4.56,6.45-7.62h-4.14c-.59,0-.97,.02-1.55,.15l-.21-.85c.74,.15,1.17,.17,1.76,.17h1.25V2.04c0-.64-.02-1.12-.13-1.93,2.14,.25,2.36,.42,2.36,.66,0,.17-.17,.34-.74,.57v3.16h1.36c.55-.66,.68-.72,.81-.72s.25,.06,.96,.78c.3,.32,.36,.45,.36,.59,0,.19-.17,.3-.68,.45-.74,1.46-1.63,2.74-2.67,3.84,2.25,.7,3.48,1.65,3.48,2.67,0,.47-.34,.85-.74,.85-.36,0-.55-.17-.79-.72-.51-1.08-1.1-1.76-2.06-2.46v3.8Zm11.63,4.29c1.04-1.29,1.19-1.38,1.34-1.38,.13,0,.32,.06,1.36,1,.51,.42,.59,.57,.59,.7,0,.15-.08,.21-.3,.21h-11.18c-.62,0-1.06,.04-1.7,.13l-.21-.81c.74,.13,1.21,.15,1.85,.15h3.84V8.42h-2.55c-.55,0-.91,.04-1.48,.13l-.23-.81c.68,.13,1.08,.15,1.65,.15h2.61v-3.2c0-2.21-.02-3.54-.11-4.33,2.23,.23,2.48,.4,2.48,.66,0,.17-.17,.36-.79,.59V7.89h2.54c.98-1.15,1.15-1.25,1.27-1.25s.28,.11,1.25,.93c.45,.38,.55,.51,.55,.66,0,.13-.06,.19-.28,.19h-5.35v9.44h2.82Z"/><path class="d" d="M111.26,17.67c.93-1.1,1.08-1.21,1.23-1.21s.3,.11,1.25,.91c.45,.36,.55,.51,.55,.64s-.06,.19-.28,.19h-16v.45c0,.59-.23,.76-1,.76-.51,0-.72-.15-.72-.51,0-.78,.13-3.18,.13-9.82,0-4.88-.02-6.45-.13-8.38,.83,.36,1.19,.51,1.93,.95h12.83c.93-1.04,1.06-1.12,1.19-1.12,.17,0,.32,.08,1.25,.85,.47,.36,.55,.47,.55,.62,0,.13-.08,.19-.32,.19h-15.72v15.49h13.24Zm-1.97-12.18c.78-.95,.98-1.04,1.1-1.04s.3,.08,1.14,.81c.38,.3,.49,.42,.49,.55,0,.15-.06,.21-.28,.21h-5.09c-.02,1.38-.06,2.35-.23,3.31h4.26c.85-1.06,1.02-1.15,1.14-1.15s.3,.08,1.23,.87c.42,.34,.51,.47,.51,.62,0,.13-.06,.19-.28,.19h-6.96c-.17,.78-.32,1.25-.49,1.68,3.56,1.02,5.75,2.46,5.75,3.8,0,.53-.3,.87-.76,.87-.34,0-.66-.23-1.08-.81-1.21-1.59-2.16-2.46-4.05-3.52-1.04,2.35-3.12,3.82-6.51,4.73-.15,.04-.25-.23-.13-.3,3.41-1.61,5.07-3.35,5.68-6.45h-3.99c-.47,0-.79,.04-1.34,.13l-.21-.76c.62,.08,1.02,.11,1.55,.11h4.07c.15-1.1,.19-2.21,.21-3.31h-2.4c-.7,1.02-1.57,1.87-2.76,2.69-.1,.06-.34-.08-.25-.19,.85-.98,1.63-2.38,2.14-3.65,.3-.74,.49-1.44,.55-2.06,1.68,.47,2.19,.68,2.19,.91s-.25,.36-.83,.4c-.21,.49-.45,.93-.7,1.36h6.3Z"/><path class="d" d="M119.13,13.81c0-.42,.15-.68,.57-1.02,1.19-.91,1.8-2.25,2.04-4.18,.02-.11,.25-.11,.28,0,.11,.62,.17,1.23,.17,1.82,0,2.4-.87,4.33-2.14,4.33-.53,0-.91-.4-.91-.95Zm7.06,2.08c0,1.15,.25,1.27,2.95,1.27,1.7,0,2.31-.02,2.82-.34,.51-.32,.74-1,1.38-3.35,.02-.11,.25-.08,.25,.02-.04,1.06-.08,2.04-.08,2.46s.11,.51,.47,.68c.19,.08,.3,.28,.3,.51,0,.51-.4,.89-1.06,1.12-.74,.23-2.1,.38-4.5,.38-3.31,0-4.16-.51-4.16-2.48,0-.51,.06-2.06,.06-6.22,0-2.99-.02-3.52-.13-4.9,2.27,.28,2.5,.36,2.5,.66,0,.21-.17,.4-.81,.64V15.89Zm2.74-12.16c-.81-1.04-1.93-2.04-3.22-2.67-.08-.04-.02-.28,.08-.25,3.03,.36,5.2,1.63,5.2,2.97,0,.53-.32,.95-.83,.95-.38,0-.49-.02-1.23-1Zm7,9.1c-.21-1.49-.95-3.12-1.87-4.37-.09-.11,.1-.25,.21-.19,2.19,1.38,3.63,3.37,3.63,4.88,0,.81-.38,1.29-.98,1.29-.55,0-.78-.25-1-1.61Z"/></g></g></g></g></svg>